<svg xmlns="http://www.w3.org/2000/svg" viewBox="0 0 1024 158" width="1024" height="158"><title>promotion-center-pattern-svg</title><style>		tspan { white-space:pre }		.shp0 { opacity: 0.349;fill: #fefefe } 		.shp1 { opacity: 0.49;fill: #fefefe } 		.shp2 { opacity: 0.42;fill: #fefefe } 		.shp3 { opacity: 0.278;fill: #fefefe } 		.shp4 { opacity: 0.071;fill: #fefefe } 		.shp5 { opacity: 0.141;fill: #fefefe } 		.shp6 { opacity: 0.212;fill: #fefefe } 		.shp7 { opacity: 0.169;fill: #fefefe } 		.shp8 { opacity: 0.004;fill: #fefefe } 	</style><g id="Pattern"><g id="Digikala Offer Badges">		</g><g id="Line3" style="opacity: 0.6"><path id="Fill 102" fill-rule="evenodd" class="shp0" d="M740.31 31.18C740.04 37.21 734.95 41.81 728.83 41.54L711.09 40.76C704.94 40.49 700.41 35.56 700.69 29.43L701.96 0.77L741.58 2.52L740.31 31.18ZM710.29 9.87L709.52 27.36C709.42 29.68 711.59 32.05 713.91 32.15L727.35 32.74C729.56 32.84 731.55 30.82 731.66 28.34L732.44 10.85L710.29 9.87Z"></path><path id="Fill 225" fill-rule="evenodd" class="shp1" d="M559.15 30.12L593.73 11.38L597.6 19.55L563.01 38.29L559.15 30.12Z"></path><path id="Fill 275" fill-rule="evenodd" class="shp1" d="M528.61 15.45L530.51 25.86L513.77 44L491.51 32.06L489.61 21.65L511.86 33.6L528.61 15.45Z"></path><path id="Fill 315" fill-rule="evenodd" class="shp2" d="M647.92 17.23C645.58 17.07 643.1 19.03 642.92 21.18L641.78 35.35L641.75 35.71L641.61 37.48L641.6 37.47L640.77 37.42L632.77 36.87L632.95 34.78L632.94 34.78L634.27 18.32C634.73 12.6 639.87 8.54 646.09 8.96L666.32 10.34L665.66 18.44L647.92 17.23ZM640.91 35.67L640.91 35.62L640.89 35.62L640.91 35.67Z"></path><path id="Fill 102_2" fill-rule="evenodd" class="shp3" d="M253.55 31.18C253.28 37.21 248.19 41.81 242.07 41.54L224.33 40.76C218.18 40.49 213.66 35.56 213.93 29.43L215.2 0.77L254.82 2.52L253.55 31.18ZM223.53 9.87L222.76 27.36C222.66 29.68 224.84 32.05 227.15 32.15L240.59 32.74C242.81 32.84 244.79 30.82 244.9 28.34L245.68 10.85L223.53 9.87Z"></path><path id="Fill 102 Copy" fill-rule="evenodd" class="shp4" d="M1021.73 31.18C1021.46 37.21 1016.37 41.81 1010.25 41.54L992.51 40.76C986.36 40.49 981.84 35.56 982.11 29.43L983.38 0.77L1023 2.52L1021.73 31.18ZM991.72 9.87L990.94 27.36C990.84 29.68 993.01 32.05 995.33 32.15L1008.77 32.74C1010.98 32.84 1012.97 30.82 1013.08 28.34L1013.86 10.85L991.72 9.87Z"></path><path id="Fill 148" fill-rule="evenodd" class="shp1" d="M461.8 31.68L452.22 39.11L424.35 34.4L424.16 8.2L433.74 0.77L433.92 26.97L461.8 31.68Z"></path><path id="Fill 204" fill-rule="evenodd" class="shp2" d="M365.63 5.67L384.9 39.85L377.17 44L357.9 9.82L365.63 5.67Z"></path><path id="Fill 225_2" fill-rule="evenodd" class="shp5" d="M72.39 30.12L106.97 11.38L110.84 19.55L76.25 38.29L72.39 30.12Z"></path><path id="Fill 225 Copy" fill-rule="evenodd" class="shp6" d="M840.57 30.12L875.15 11.38L879.02 19.55L844.43 38.29L840.57 30.12Z"></path><path id="Fill 275_2" fill-rule="evenodd" class="shp4" d="M42.67 15.45L44.57 25.86L27.83 44L5.57 32.06L3.67 21.65L25.92 33.6L42.67 15.45Z"></path><path id="Fill 275 Copy" fill-rule="evenodd" class="shp3" d="M810.85 15.45L812.75 25.86L796.01 44L773.75 32.06L771.85 21.65L794.1 33.6L810.85 15.45Z"></path><path id="Fill 315_2" fill-rule="evenodd" class="shp6" d="M160.34 17.23C158 17.07 155.52 19.03 155.35 21.18L154.2 35.35L154.17 35.71L154.03 37.48L154.02 37.47L153.19 37.42L145.2 36.87L145.37 34.78L145.36 34.78L146.69 18.32C147.16 12.6 152.3 8.54 158.51 8.96L178.74 10.34L178.08 18.44L160.34 17.23ZM153.33 35.67L153.33 35.62L153.31 35.62L153.33 35.67Z"></path><path id="Fill 315 Copy" fill-rule="evenodd" class="shp7" d="M928.52 17.23C926.18 17.07 923.7 19.03 923.53 21.18L922.38 35.35L922.35 35.71L922.21 37.48L922.2 37.47L921.37 37.42L913.38 36.87L913.55 34.78L913.54 34.78L914.87 18.32C915.34 12.6 920.48 8.54 926.69 8.96L946.92 10.34L946.26 18.44L928.52 17.23ZM921.51 35.67L921.51 35.62L921.49 35.62L921.51 35.67Z"></path><path id="Fill 317" fill-rule="evenodd" class="shp0" d="M307.86 15.78C306.16 14.21 302.89 14.29 301.28 15.95L290.64 26.86L290.37 27.14L289.04 28.5L289.04 28.5L288.44 27.94L282.63 22.57L284.2 20.96L284.2 20.95L296.56 8.27C300.85 3.87 307.62 3.7 312.13 7.88L326.81 21.46L320.73 27.7L307.86 15.78ZM289.74 26.59L289.78 26.56L289.76 26.54L289.74 26.59Z"></path></g><g id="Line2" style="opacity: 0.4"><path id="Fill 5" fill-rule="evenodd" class="shp8" d="M663.52 96.1C660.86 101.61 654.39 103.81 648.96 101.05L633.19 93.03C627.73 90.26 625.6 83.81 628.31 78.2L640.97 52L676.18 69.9L663.52 96.1ZM644.87 63.91L637.15 79.9C636.13 82.01 637.15 85.12 639.2 86.17L651.15 92.24C653.12 93.24 655.73 92.17 656.82 89.9L664.55 73.91L644.87 63.91Z"></path><path id="Fill 202" fill-rule="evenodd" class="shp0" d="M700.7 77.38L739.72 69.02L741.56 77.66L702.53 86.03L700.7 77.38Z"></path><path id="Fill 277" fill-rule="evenodd" class="shp8" d="M561.76 73.91L567.58 63.14L593.53 58.48L602.62 84.98L596.79 95.76L587.7 69.26L561.76 73.91Z"></path><path id="Fill 373" fill-rule="evenodd" class="shp8" d="M517.18 74.04C516.23 71.92 513.21 70.76 511.1 71.71L497.14 77.96L496.78 78.12L495.04 78.89L495.04 78.89L494.7 78.14L491.47 70.91L493.53 69.99L493.52 69.98L509.75 62.72C515.37 60.2 521.63 62.6 524.15 68.22L532.33 86.52L524.36 90.08L517.18 74.04ZM496.42 77.37L496.47 77.35L496.46 77.33L496.42 77.37Z"></path><path id="Fill 5_2" fill-rule="evenodd" class="shp6" d="M177.84 96.1C175.16 101.61 168.65 103.81 163.17 101.05L147.29 93.03C141.79 90.26 139.65 83.81 142.38 78.2L155.13 52L190.59 69.9L177.84 96.1ZM159.06 63.91L151.28 79.9C150.25 82.01 151.28 85.12 153.35 86.17L165.38 92.24C167.36 93.24 169.99 92.17 171.1 89.9L178.88 73.91L159.06 63.91Z"></path><path id="Fill 5 Copy" fill-rule="evenodd" class="shp7" d="M946.18 96.1C943.5 101.61 936.98 103.81 931.51 101.05L915.63 93.03C910.12 90.26 907.98 83.81 910.71 78.2L923.46 52L958.93 69.9L946.18 96.1ZM927.39 63.91L919.61 79.9C918.58 82.01 919.61 85.12 921.68 86.17L933.72 92.24C935.7 93.24 938.33 92.17 939.43 89.9L947.21 73.91L927.39 63.91Z"></path><path id="Fill 100" fill-rule="evenodd" class="shp8" d="M392.75 76.66C395.78 81.85 394.08 88.49 388.92 91.61L373.94 100.65C368.74 103.79 362.37 102.14 359.28 96.87L344.85 72.2L378.32 52L392.75 76.66ZM356.61 75.26L365.41 90.31C366.58 92.3 369.65 93.09 371.6 91.91L382.96 85.06C384.83 83.93 385.36 81.15 384.12 79.02L375.31 63.97L356.61 75.26Z"></path><path id="Fill 146" fill-rule="evenodd" class="shp0" d="M300.6 102.24L289.45 97.02L283.32 71.73L309.44 61.53L320.59 66.75L294.47 76.94L300.6 102.24Z"></path><path id="Fill 202_2" fill-rule="evenodd" class="shp3" d="M214.86 76.98L253.76 68.46L255.59 77.26L216.69 85.78L214.86 76.98Z"></path><path id="Fill 202 Copy" fill-rule="evenodd" class="shp4" d="M983.19 76.98L1022.1 68.46L1023.93 77.26L985.03 85.78L983.19 76.98Z"></path><path id="Fill 222" fill-rule="evenodd" class="shp8" d="M424.58 84.97L460.77 64.99L465.32 72.73L429.13 92.71L424.58 84.97Z"></path><path id="Fill 277_2" fill-rule="evenodd" class="shp5" d="M77.06 73.48L82.87 62.72L108.73 58.06L117.8 84.54L111.99 95.31L102.92 68.83L77.06 73.48Z"></path><path id="Fill 277 Copy" fill-rule="evenodd" class="shp6" d="M845.4 73.48L851.21 62.72L877.07 58.06L886.13 84.54L880.32 95.31L871.26 68.83L845.4 73.48Z"></path><path id="Fill 373_2" fill-rule="evenodd" class="shp4" d="M31.63 73.94C30.68 71.8 27.67 70.64 25.56 71.59L11.65 77.89L11.29 78.05L9.56 78.83L9.56 78.83L9.22 78.07L6 70.79L8.05 69.86L8.05 69.85L24.22 62.53C29.83 60 36.07 62.41 38.58 68.08L46.73 86.52L38.78 90.11L31.63 73.94ZM10.94 77.3L10.98 77.27L10.98 77.25L10.94 77.3Z"></path><path id="Fill 373 Copy" fill-rule="evenodd" class="shp3" d="M799.96 73.94C799.02 71.8 796.01 70.64 793.9 71.59L779.99 77.89L779.63 78.05L777.9 78.83L777.89 78.83L777.56 78.07L774.34 70.79L776.39 69.86L776.38 69.85L792.55 62.53C798.16 60 804.4 62.41 806.91 68.08L815.07 86.52L807.12 90.11L799.96 73.94ZM779.27 77.3L779.32 77.27L779.31 77.25L779.27 77.3Z"></path></g><g id="Line1" style="opacity: 0.2"><path id="Fill 144" fill-rule="evenodd" class="shp0" d="M724.48 135.57L720.26 145.53L695.91 152.93L683.75 131.53L687.96 121.58L700.13 142.97L724.48 135.57Z"></path><path id="Fill 196" fill-rule="evenodd" class="shp1" d="M491.98 157.28L485.3 117.79L494.21 116.35L500.89 155.84L491.98 157.28Z"></path><path id="Fill 429" fill-rule="evenodd" class="shp1" d="M600.82 130.29L602.29 138.39L594.22 139.87L592.75 131.76L600.82 130.29Z"></path><path id="Fill 98" fill-rule="evenodd" class="shp0" d="M313.6 152.89C307.74 153.38 302.67 149.02 302.18 143.06L300.75 125.79C300.25 119.81 304.46 114.82 310.42 114.32L338.26 112L341.44 150.57L313.6 152.89ZM330.49 121.2L313.5 122.61C311.25 122.8 309.23 125.2 309.41 127.46L310.49 140.54C310.67 142.7 312.87 144.37 315.28 144.17L332.27 142.75L330.49 121.2Z"></path><path id="Fill 144_2" fill-rule="evenodd" class="shp3" d="M238.31 135.57L234.1 145.53L209.75 152.93L197.59 131.53L201.79 121.58L213.97 142.97L238.31 135.57Z"></path><path id="Fill 144 Copy" fill-rule="evenodd" class="shp4" d="M1006.22 135.57L1002 145.53L977.65 152.93L965.49 131.53L969.7 121.58L981.87 142.97L1006.22 135.57Z"></path><path id="Fill 196_2" fill-rule="evenodd" class="shp4" d="M6.68 157.28L0 117.79L8.92 116.35L15.6 155.84L6.68 157.28Z"></path><path id="Fill 196 Copy" fill-rule="evenodd" class="shp3" d="M774.58 157.28L767.9 117.79L776.82 116.35L783.5 155.84L774.58 157.28Z"></path><path id="Fill 305" fill-rule="evenodd" class="shp1" d="M426.75 122.98C424.64 122.02 421.63 123.19 420.68 125.34L414.46 139.48L414.3 139.85L413.53 141.61L413.52 141.6L412.77 141.26L405.57 137.99L406.49 135.91L406.48 135.9L413.71 119.46C416.21 113.76 422.45 111.33 428.06 113.88L446.3 122.16L442.74 130.25L426.75 122.98ZM413.54 139.52L413.56 139.47L413.54 139.46L413.54 139.52Z"></path><path id="Fill 429_2" fill-rule="evenodd" class="shp5" d="M114.66 130.29L116.12 138.39L108.06 139.87L106.59 131.76L114.66 130.29Z"></path><path id="Fill 429 Copy" fill-rule="evenodd" class="shp6" d="M882.56 130.29L884.02 138.39L875.96 139.87L874.49 131.76L882.56 130.29Z"></path></g></g></svg>